<svg t="1703747319309" class="icon" viewBox="0 0 1024 1024" version="1.1" xmlns="http://www.w3.org/2000/svg" p-id="1817" width="200" height="200"><path d="M128 341.333333h128v554.666667H128z" fill="#cdcdcd" p-id="1818"></path><path d="M191.957333 192.042667m-64.042666 0a64.042667 64.042667 0 1 0 128.085333 0 64.042667 64.042667 0 1 0-128.085333 0Z" fill="#cdcdcd" p-id="1819"></path><path d="M768 640v256h128v-253.482667c1.749333-24.618667 5.76-143.274667-69.930667-226.176C794.837333 382.122667 737.152 341.333333 640 341.333333c-54.4 0-96.042667 12.928-128 30.08V341.333333H384v257.024a345.258667 345.258667 0 0 0 0 44.245334V896h128v-291.242667c2.176-31.104 10.752-74.453333 36.437333-102.314666C568.874667 480.170667 598.826667 469.333333 640 469.333333c40.917333 0 70.784 10.794667 91.264 32.938667 35.968 38.997333 38.869333 108.672 36.992 131.925333A66.005333 66.005333 0 0 0 768 640z" fill="#cdcdcd" p-id="1820"></path></svg>