<?xml version="1.0" standalone="no"?>
<!DOCTYPE svg PUBLIC "-//W3C//DTD SVG 20010904//EN"
 "http://www.w3.org/TR/2001/REC-SVG-20010904/DTD/svg10.dtd">
<svg version="1.0" xmlns="http://www.w3.org/2000/svg"
 width="800.000000pt" height="800.000000pt" viewBox="0 0 800.000000 800.000000"
 preserveAspectRatio="xMidYMid meet">
<metadata>
Created by potrace 1.14, written by Peter Selinger 2001-2017
</metadata>
<g transform="translate(0.000000,800.000000) scale(0.100000,-0.100000)"
fill="#000000" stroke="none">
<path d="M1059 7996 c-2 -2 -44 -6 -94 -10 -311 -21 -487 -96 -676 -286 -132
-134 -215 -284 -248 -450 -18 -93 -21 -112 -28 -205 -10 -116 -10 -5997 -1
-6090 15 -137 20 -171 40 -250 36 -145 118 -284 239 -406 73 -75 196 -164 269
-195 19 -9 43 -20 52 -24 23 -12 164 -48 213 -54 22 -3 81 -9 130 -13 110 -10
5930 -11 6070 -1 235 16 384 60 520 151 208 140 355 340 406 553 22 91 25 111
37 249 10 108 9 5945 -1 6065 -20 254 -58 378 -163 536 -35 52 -142 167 -199
214 -133 109 -290 174 -470 195 -33 4 -71 10 -85 13 -26 7 -6004 15 -6011 8z"/>
</g>
</svg>
